<mxfile host="app.diagrams.net" modified="2023-09-04T01:14:18.664Z" agent="Mozilla/5.0 (Macintosh; Intel Mac OS X 10_15_7) AppleWebKit/605.1.15 (KHTML, like Gecko) Version/16.0 Safari/605.1.15" version="21.7.2" etag="WsKYDolVECOMBNhUrO7S" type="github">
  <diagram name="Page-1" id="NYVP4h1auIupLLTYtQVw">
    <mxGraphModel>
      <root>
        <mxCell id="0" />
        <mxCell id="1" parent="0" />
      </root>
    </mxGraphModel>
  </diagram>
</mxfile>
